<svg t="1713336287204" class="icon" viewBox="0 0 1024 1024" version="1.1" xmlns="http://www.w3.org/2000/svg" p-id="6723" width="300" height="300"><path d="M774.4 134.4c12.8 12.8 12.8 25.6 12.8 38.4 0 12.8-6.4 25.6-12.8 38.4l-44.8 44.8h51.2c44.8 0 83.2 19.2 115.2 44.8 32 32 44.8 70.4 44.8 115.2v320c0 89.6-70.4 160-160 160H243.2c-89.6 0-160-70.4-160-160v-320C83.2 326.4 160 256 243.2 256h51.2l-51.2-51.2c-12.8-12.8-19.2-32-12.8-51.2 6.4-19.2 19.2-32 38.4-38.4 19.2-6.4 38.4 0 51.2 12.8l115.2 115.2c0 6.4 6.4 6.4 6.4 12.8H576c0-6.4 6.4-6.4 6.4-12.8L704 134.4c12.8-12.8 25.6-12.8 38.4-12.8 12.8-6.4 25.6 0 32 12.8z m6.4 230.4H243.2c-25.6 0-51.2 19.2-51.2 44.8v326.4c0 25.6 19.2 51.2 51.2 51.2h537.6c25.6 0 51.2-19.2 51.2-51.2V409.6c0-25.6-25.6-44.8-51.2-44.8zM352 467.2c32 0 51.2 25.6 51.2 51.2V576c0 32-25.6 51.2-51.2 51.2s-51.2-19.2-51.2-51.2v-51.2c0-32 19.2-57.6 51.2-57.6z m320 0c32 0 51.2 25.6 51.2 51.2V576c0 32-25.6 51.2-51.2 51.2s-51.2-19.2-51.2-51.2v-51.2c0-32 19.2-57.6 51.2-57.6z" p-id="6724"></path></svg>